<svg width="121" height="40" viewBox="0 0 121 40" fill="none" xmlns="http://www.w3.org/2000/svg">
<path d="M0 13.6438C0 6.65607 5.66466 0.991417 12.6524 0.991417H31.7725C31.7725 7.97913 26.1079 13.6438 19.1202 13.6438H0Z" fill="url(#paint0_linear_63_31)"/>
<path d="M0 38.9485C0 31.9608 5.66466 26.2961 12.6524 26.2961H31.7725C31.7725 33.2838 26.1079 38.9485 19.1202 38.9485H0Z" fill="url(#paint1_linear_63_31)"/>
<path d="M31.7725 26.2961C31.7725 19.3084 26.1078 13.6438 19.1201 13.6438H-7.05719e-05C-7.05719e-05 20.6315 5.66459 26.2961 12.6523 26.2961H31.7725Z" fill="url(#paint2_linear_63_31)"/>
<path d="M52.498 3.26165e-06C59.4857 3.56709e-06 65.1504 5.66466 65.1504 12.6524L65.1504 27.3348C65.1504 34.3225 59.4857 39.9871 52.498 39.9871L52.498 3.26165e-06Z" fill="#D9D9D9"/>
<path d="M39.8455 0L39.8455 39.9871L52.4978 39.9871L52.4978 -5.53052e-07L39.8455 0Z" fill="url(#paint3_linear_63_31)"/>
<path d="M52.498 39.9871C59.4857 39.9871 65.1504 34.3225 65.1504 27.3348L65.1504 12.6523C65.1504 5.66464 59.4857 -3.88225e-06 52.498 -3.96558e-06L52.498 39.9871Z" fill="url(#paint4_linear_63_31)"/>
<path d="M108.348 39.9871C115.335 39.9871 121 34.3225 121 27.3348L121 12.6524C121 5.66465 115.335 -6.75503e-08 108.348 -1.50878e-07L108.348 39.9871Z" fill="url(#paint5_linear_63_31)"/>
<path d="M73.2231 0L73.2231 39.9871L85.8755 39.9871L85.8755 -5.53052e-07L73.2231 0Z" fill="url(#paint6_linear_63_31)"/>
<path d="M100.275 12.6524C100.275 5.66465 94.61 4.9522e-07 87.6223 1.10611e-06L85.8755 1.25881e-06L85.8755 12.6524L100.275 12.6524Z" fill="url(#paint7_linear_63_31)"/>
<path d="M94.9871 21.7167C94.9871 17.2842 91.3938 13.691 86.9613 13.691L85.8755 13.691L85.8755 21.7167L94.9871 21.7167Z" fill="url(#paint8_linear_63_31)"/>
<defs>
<linearGradient id="paint0_linear_63_31" x1="31.7725" y1="7.31759" x2="-2.02148e-09" y2="7.31759" gradientUnits="userSpaceOnUse">
<stop stop-color="#1B647C"/>
<stop offset="1" stop-color="#31B5E1"/>
</linearGradient>
<linearGradient id="paint1_linear_63_31" x1="31.7725" y1="32.6223" x2="-2.02148e-09" y2="32.6223" gradientUnits="userSpaceOnUse">
<stop stop-color="#1B647C"/>
<stop offset="1" stop-color="#31B5E1"/>
</linearGradient>
<linearGradient id="paint2_linear_63_31" x1="31.7725" y1="22.0472" x2="-7.06776e-05" y2="22.0472" gradientUnits="userSpaceOnUse">
<stop stop-color="#31B5E1"/>
<stop offset="1" stop-color="#1B647C"/>
</linearGradient>
<linearGradient id="paint3_linear_63_31" x1="46.1718" y1="-2.16112e-06" x2="46.1718" y2="39.9871" gradientUnits="userSpaceOnUse">
<stop stop-color="#31B5E1"/>
<stop offset="1" stop-color="#1B647C"/>
</linearGradient>
<linearGradient id="paint4_linear_63_31" x1="58.824" y1="39.9871" x2="58.8241" y2="-2.00556e-06" gradientUnits="userSpaceOnUse">
<stop stop-color="#31B5E1"/>
<stop offset="1" stop-color="#1B647C"/>
</linearGradient>
<linearGradient id="paint5_linear_63_31" x1="114.674" y1="39.9871" x2="114.674" y2="1.80914e-06" gradientUnits="userSpaceOnUse">
<stop stop-color="#31B5E1"/>
<stop offset="1" stop-color="#1B647C"/>
</linearGradient>
<linearGradient id="paint6_linear_63_31" x1="79.5495" y1="-2.16112e-06" x2="79.5495" y2="39.9871" gradientUnits="userSpaceOnUse">
<stop stop-color="#31B5E1"/>
<stop offset="1" stop-color="#1B647C"/>
</linearGradient>
<linearGradient id="paint7_linear_63_31" x1="100.275" y1="6.32634" x2="85.8755" y2="6.32634" gradientUnits="userSpaceOnUse">
<stop stop-color="#31B5E1"/>
<stop offset="1" stop-color="#1B647C"/>
</linearGradient>
<linearGradient id="paint8_linear_63_31" x1="94.9871" y1="17.704" x2="85.8755" y2="17.704" gradientUnits="userSpaceOnUse">
<stop stop-color="#31B5E1"/>
<stop offset="1" stop-color="#1B647C"/>
</linearGradient>
</defs>
</svg>
